<?xml version="1.0" encoding="UTF-8" standalone="no"?>
<!DOCTYPE svg PUBLIC "-//W3C//DTD SVG 1.0//EN"
 "http://www.w3.org/TR/2001/REC-SVG-20010904/DTD/svg10.dtd" [
 <!ATTLIST svg xmlns:xlink CDATA #FIXED "http://www.w3.org/1999/xlink">
]>
<!-- Generated by Graphviz version 2.18 (Sun Aug 17 06:44:39 UTC 2008)
     For user: (rjh) Randy Harmon -->
<!-- Title: controllers_diagram Pages: 1 -->
<svg width="640pt" height="344pt"
 viewBox="0.00 0.00 640.00 344.00" xmlns="http://www.w3.org/2000/svg" xmlns:xlink="http://www.w3.org/1999/xlink">
<g id="graph0" class="graph" transform="scale(1 1) rotate(0) translate(4 340)">
<title>controllers_diagram</title>
<polygon style="fill:white;stroke:white;" points="-4,4 -4,-340 636,-340 636,4 -4,4"/>
<!-- _diagram_info -->
<g id="node1" class="node"><title>_diagram_info</title>
<text text-anchor="start" x="26.5" y="-308.4" style="font-family:Times New Roman;font-size:11.00;">Controllers diagram</text>
<text text-anchor="start" x="26.5" y="-291.4" style="font-family:Times New Roman;font-size:11.00;">Date: Jan 09 2009 &#45; 21:38</text>
<text text-anchor="start" x="26.5" y="-274.4" style="font-family:Times New Roman;font-size:11.00;">Migration version: 20090108212837</text>
<text text-anchor="start" x="26.5" y="-257.4" style="font-family:Times New Roman;font-size:11.00;">Generated by RailRoad 0.5.0</text>
</g>
<!-- HatsController -->
<g id="node2" class="node"><title>HatsController</title>
<polyline style="fill:none;stroke:black;" points="12,-1 86,-1 "/>
<path style="fill:none;stroke:black;" d="M86,-1C92,-1 98,-7 98,-13"/>
<polyline style="fill:none;stroke:black;" points="98,-13 98,-189 "/>
<path style="fill:none;stroke:black;" d="M98,-189C98,-195 92,-201 86,-201"/>
<polyline style="fill:none;stroke:black;" points="86,-201 12,-201 "/>
<path style="fill:none;stroke:black;" d="M12,-201C6,-201 0,-195 0,-189"/>
<polyline style="fill:none;stroke:black;" points="0,-189 0,-13 "/>
<path style="fill:none;stroke:black;" d="M0,-13C0,-7 6,-1 12,-1"/>
<text text-anchor="middle" x="49" y="-183.9" style="font-family:Times New Roman;font-size:11.00;">HatsController</text>
<polyline style="fill:none;stroke:black;" points="0,-176 98,-176 "/>
<text text-anchor="start" x="8" y="-158.9" style="font-family:Times New Roman;font-size:11.00;">create</text>
<text text-anchor="start" x="8" y="-141.9" style="font-family:Times New Roman;font-size:11.00;">destroy</text>
<text text-anchor="start" x="8" y="-124.9" style="font-family:Times New Roman;font-size:11.00;">edit</text>
<text text-anchor="start" x="8" y="-107.9" style="font-family:Times New Roman;font-size:11.00;">index</text>
<text text-anchor="start" x="8" y="-90.9" style="font-family:Times New Roman;font-size:11.00;">new</text>
<text text-anchor="start" x="8" y="-73.9" style="font-family:Times New Roman;font-size:11.00;">show</text>
<text text-anchor="start" x="8" y="-56.9" style="font-family:Times New Roman;font-size:11.00;">update</text>
<polyline style="fill:none;stroke:black;" points="0,-49 98,-49 "/>
<polyline style="fill:none;stroke:black;" points="0,-25 98,-25 "/>
</g>
<!-- SessionsController -->
<g id="node3" class="node"><title>SessionsController</title>
<polyline style="fill:none;stroke:black;" points="128,-34 226,-34 "/>
<path style="fill:none;stroke:black;" d="M226,-34C232,-34 238,-40 238,-46"/>
<polyline style="fill:none;stroke:black;" points="238,-46 238,-155 "/>
<path style="fill:none;stroke:black;" d="M238,-155C238,-161 232,-167 226,-167"/>
<polyline style="fill:none;stroke:black;" points="226,-167 128,-167 "/>
<path style="fill:none;stroke:black;" d="M128,-167C122,-167 116,-161 116,-155"/>
<polyline style="fill:none;stroke:black;" points="116,-155 116,-46 "/>
<path style="fill:none;stroke:black;" d="M116,-46C116,-40 122,-34 128,-34"/>
<text text-anchor="middle" x="177" y="-149.9" style="font-family:Times New Roman;font-size:11.00;">SessionsController</text>
<polyline style="fill:none;stroke:black;" points="116,-142 238,-142 "/>
<text text-anchor="start" x="124" y="-124.9" style="font-family:Times New Roman;font-size:11.00;">create</text>
<text text-anchor="start" x="124" y="-107.9" style="font-family:Times New Roman;font-size:11.00;">destroy</text>
<text text-anchor="start" x="124" y="-90.9" style="font-family:Times New Roman;font-size:11.00;">new</text>
<polyline style="fill:none;stroke:black;" points="116,-83 238,-83 "/>
<text text-anchor="start" x="124" y="-65.9" style="font-family:Times New Roman;font-size:11.00;">note_failed_signin</text>
<polyline style="fill:none;stroke:black;" points="116,-58 238,-58 "/>
</g>
<!-- ThoughtsController -->
<g id="node4" class="node"><title>ThoughtsController</title>
<polyline style="fill:none;stroke:black;" points="268,-9 370,-9 "/>
<path style="fill:none;stroke:black;" d="M370,-9C376,-9 382,-15 382,-21"/>
<polyline style="fill:none;stroke:black;" points="382,-21 382,-181 "/>
<path style="fill:none;stroke:black;" d="M382,-181C382,-187 376,-193 370,-193"/>
<polyline style="fill:none;stroke:black;" points="370,-193 268,-193 "/>
<path style="fill:none;stroke:black;" d="M268,-193C262,-193 256,-187 256,-181"/>
<polyline style="fill:none;stroke:black;" points="256,-181 256,-21 "/>
<path style="fill:none;stroke:black;" d="M256,-21C256,-15 262,-9 268,-9"/>
<text text-anchor="middle" x="319" y="-175.9" style="font-family:Times New Roman;font-size:11.00;">ThoughtsController</text>
<polyline style="fill:none;stroke:black;" points="256,-168 382,-168 "/>
<text text-anchor="start" x="264" y="-151.4" style="font-family:Times New Roman;font-size:11.00;">create</text>
<text text-anchor="start" x="264" y="-134.4" style="font-family:Times New Roman;font-size:11.00;">destroy</text>
<text text-anchor="start" x="264" y="-117.4" style="font-family:Times New Roman;font-size:11.00;">edit</text>
<text text-anchor="start" x="264" y="-100.4" style="font-family:Times New Roman;font-size:11.00;">new</text>
<text text-anchor="start" x="264" y="-83.4" style="font-family:Times New Roman;font-size:11.00;">show</text>
<text text-anchor="start" x="264" y="-66.4" style="font-family:Times New Roman;font-size:11.00;">update</text>
<polyline style="fill:none;stroke:black;" points="256,-58 382,-58 "/>
<polyline style="fill:none;stroke:black;" points="256,-34 382,-34 "/>
<text text-anchor="start" x="264" y="-16.9" style="font-family:Times New Roman;font-size:11.00;">get_topic</text>
</g>
<!-- TopicsController -->
<g id="node5" class="node"><title>TopicsController</title>
<polyline style="fill:none;stroke:black;" points="412,-1 499,-1 "/>
<path style="fill:none;stroke:black;" d="M499,-1C505,-1 511,-7 511,-13"/>
<polyline style="fill:none;stroke:black;" points="511,-13 511,-189 "/>
<path style="fill:none;stroke:black;" d="M511,-189C511,-195 505,-201 499,-201"/>
<polyline style="fill:none;stroke:black;" points="499,-201 412,-201 "/>
<path style="fill:none;stroke:black;" d="M412,-201C406,-201 400,-195 400,-189"/>
<polyline style="fill:none;stroke:black;" points="400,-189 400,-13 "/>
<path style="fill:none;stroke:black;" d="M400,-13C400,-7 406,-1 412,-1"/>
<text text-anchor="middle" x="455" y="-183.9" style="font-family:Times New Roman;font-size:11.00;">TopicsController</text>
<polyline style="fill:none;stroke:black;" points="400,-176 511,-176 "/>
<text text-anchor="start" x="407.5" y="-158.9" style="font-family:Times New Roman;font-size:11.00;">create</text>
<text text-anchor="start" x="407.5" y="-141.9" style="font-family:Times New Roman;font-size:11.00;">destroy</text>
<text text-anchor="start" x="407.5" y="-124.9" style="font-family:Times New Roman;font-size:11.00;">edit</text>
<text text-anchor="start" x="407.5" y="-107.9" style="font-family:Times New Roman;font-size:11.00;">index</text>
<text text-anchor="start" x="407.5" y="-90.9" style="font-family:Times New Roman;font-size:11.00;">new</text>
<text text-anchor="start" x="407.5" y="-73.9" style="font-family:Times New Roman;font-size:11.00;">show</text>
<text text-anchor="start" x="407.5" y="-56.9" style="font-family:Times New Roman;font-size:11.00;">update</text>
<polyline style="fill:none;stroke:black;" points="400,-49 511,-49 "/>
<polyline style="fill:none;stroke:black;" points="400,-25 511,-25 "/>
</g>
<!-- UsersController -->
<g id="node6" class="node"><title>UsersController</title>
<polyline style="fill:none;stroke:black;" points="540,-0 621,-0 "/>
<path style="fill:none;stroke:black;" d="M621,-0C627,-0 633,-6 633,-12"/>
<polyline style="fill:none;stroke:black;" points="633,-12 633,-189 "/>
<path style="fill:none;stroke:black;" d="M633,-189C633,-195 627,-201 621,-201"/>
<polyline style="fill:none;stroke:black;" points="621,-201 540,-201 "/>
<path style="fill:none;stroke:black;" d="M540,-201C534,-201 528,-195 528,-189"/>
<polyline style="fill:none;stroke:black;" points="528,-189 528,-12 "/>
<path style="fill:none;stroke:black;" d="M528,-12C528,-6 534,-0 540,-0"/>
<text text-anchor="middle" x="580" y="-183.9" style="font-family:Times New Roman;font-size:11.00;">UsersController</text>
<polyline style="fill:none;stroke:black;" points="528,-176 633,-176 "/>
<text text-anchor="start" x="535.5" y="-158.9" style="font-family:Times New Roman;font-size:11.00;">activate</text>
<text text-anchor="start" x="535.5" y="-141.9" style="font-family:Times New Roman;font-size:11.00;">create</text>
<text text-anchor="start" x="535.5" y="-124.9" style="font-family:Times New Roman;font-size:11.00;">destroy</text>
<text text-anchor="start" x="535.5" y="-107.9" style="font-family:Times New Roman;font-size:11.00;">new</text>
<text text-anchor="start" x="535.5" y="-90.9" style="font-family:Times New Roman;font-size:11.00;">purge</text>
<text text-anchor="start" x="535.5" y="-73.9" style="font-family:Times New Roman;font-size:11.00;">suspend</text>
<text text-anchor="start" x="535.5" y="-56.9" style="font-family:Times New Roman;font-size:11.00;">unsuspend</text>
<polyline style="fill:none;stroke:black;" points="528,-49 633,-49 "/>
<text text-anchor="start" x="535.5" y="-31.9" style="font-family:Times New Roman;font-size:11.00;">find_user</text>
<polyline style="fill:none;stroke:black;" points="528,-24 633,-24 "/>
</g>
<!-- ApplicationController -->
<g id="node7" class="node"><title>ApplicationController</title>
<polyline style="fill:none;stroke:black;" points="263,-238 376,-238 "/>
<path style="fill:none;stroke:black;" d="M376,-238C382,-238 388,-244 388,-250"/>
<polyline style="fill:none;stroke:black;" points="388,-250 388,-323 "/>
<path style="fill:none;stroke:black;" d="M388,-323C388,-329 382,-335 376,-335"/>
<polyline style="fill:none;stroke:black;" points="376,-335 263,-335 "/>
<path style="fill:none;stroke:black;" d="M263,-335C257,-335 251,-329 251,-323"/>
<polyline style="fill:none;stroke:black;" points="251,-323 251,-250 "/>
<path style="fill:none;stroke:black;" d="M251,-250C251,-244 257,-238 263,-238"/>
<text text-anchor="middle" x="319" y="-317.9" style="font-family:Times New Roman;font-size:11.00;">ApplicationController</text>
<polyline style="fill:none;stroke:black;" points="251,-310 388,-310 "/>
<polyline style="fill:none;stroke:black;" points="251,-286 388,-286 "/>
<polyline style="fill:none;stroke:black;" points="251,-262 388,-262 "/>
</g>
<!-- ApplicationController&#45;&gt;HatsController -->
<g id="edge2" class="edge"><title>ApplicationController&#45;&gt;HatsController</title>
<path style="fill:none;stroke:black;" d="M242,-238C183,-215 155,-237 107,-202 104,-200 101,-197 98,-194"/>
<polygon style="fill:none;stroke:black;" points="240.44,-241.137 251,-242 243.283,-234.74 240.44,-241.137"/>
</g>
<!-- ApplicationController&#45;&gt;SessionsController -->
<g id="edge4" class="edge"><title>ApplicationController&#45;&gt;SessionsController</title>
<path style="fill:none;stroke:black;" d="M269,-230C262,-221 254,-211 247,-202 238,-191 230,-179 221,-167"/>
<polygon style="fill:none;stroke:black;" points="266.781,-232.779 276,-238 272.049,-228.169 266.781,-232.779"/>
</g>
<!-- ApplicationController&#45;&gt;ThoughtsController -->
<g id="edge6" class="edge"><title>ApplicationController&#45;&gt;ThoughtsController</title>
<path style="fill:none;stroke:black;" d="M319,-228C319,-217 319,-205 319,-193"/>
<polygon style="fill:none;stroke:black;" points="315.5,-228 319,-238 322.5,-228 315.5,-228"/>
</g>
<!-- ApplicationController&#45;&gt;TopicsController -->
<g id="edge8" class="edge"><title>ApplicationController&#45;&gt;TopicsController</title>
<path style="fill:none;stroke:black;" d="M369,-230C376,-221 384,-211 391,-202 394,-198 397,-194 400,-189"/>
<polygon style="fill:none;stroke:black;" points="365.951,-228.169 362,-238 371.219,-232.779 365.951,-228.169"/>
</g>
<!-- ApplicationController&#45;&gt;UsersController -->
<g id="edge10" class="edge"><title>ApplicationController&#45;&gt;UsersController</title>
<path style="fill:none;stroke:black;" d="M398,-266C438,-253 485,-232 519,-202 522,-199 525,-196 528,-193"/>
<polygon style="fill:none;stroke:black;" points="396.573,-262.774 388,-269 398.584,-269.479 396.573,-262.774"/>
</g>
</g>
</svg>
