<?xml version="1.0" encoding="UTF-8" standalone="no"?>
<!DOCTYPE svg PUBLIC "-//W3C//DTD SVG 1.0//EN"
 "http://www.w3.org/TR/2001/REC-SVG-20010904/DTD/svg10.dtd" [
 <!ATTLIST svg xmlns:xlink CDATA #FIXED "http://www.w3.org/1999/xlink">
]>
<!-- Generated by Graphviz version 2.18 (Sun Aug 17 06:44:39 UTC 2008)
     For user: (rjh) Randy Harmon -->
<!-- Title: models_diagram Pages: 1 -->
<svg width="1182pt" height="400pt"
 viewBox="0.00 0.00 1182.00 400.00" xmlns="http://www.w3.org/2000/svg" xmlns:xlink="http://www.w3.org/1999/xlink">
<g id="graph0" class="graph" transform="scale(1 1) rotate(0) translate(4 396)">
<title>models_diagram</title>
<polygon style="fill:white;stroke:white;" points="-4,4 -4,-396 1178,-396 1178,4 -4,4"/>
<!-- _diagram_info -->
<g id="node1" class="node"><title>_diagram_info</title>
<text text-anchor="start" x="7.5" y="-286.4" style="font-family:Times New Roman;font-size:11.00;">Models diagram</text>
<text text-anchor="start" x="7.5" y="-269.4" style="font-family:Times New Roman;font-size:11.00;">Date: Jan 09 2009 &#45; 21:38</text>
<text text-anchor="start" x="7.5" y="-252.4" style="font-family:Times New Roman;font-size:11.00;">Migration version: 20090108212837</text>
<text text-anchor="start" x="7.5" y="-235.4" style="font-family:Times New Roman;font-size:11.00;">Generated by RailRoad 0.5.0</text>
</g>
<!-- Hat -->
<g id="node2" class="node"><title>Hat</title>
<polyline style="fill:none;stroke:black;" points="244,-197 352,-197 "/>
<path style="fill:none;stroke:black;" d="M352,-197C358,-197 364,-203 364,-209"/>
<polyline style="fill:none;stroke:black;" points="364,-209 364,-320 "/>
<path style="fill:none;stroke:black;" d="M364,-320C364,-326 358,-332 352,-332"/>
<polyline style="fill:none;stroke:black;" points="352,-332 244,-332 "/>
<path style="fill:none;stroke:black;" d="M244,-332C238,-332 232,-326 232,-320"/>
<polyline style="fill:none;stroke:black;" points="232,-320 232,-209 "/>
<path style="fill:none;stroke:black;" d="M232,-209C232,-203 238,-197 244,-197"/>
<text text-anchor="middle" x="298" y="-314.9" style="font-family:Times New Roman;font-size:11.00;">Hat</text>
<polyline style="fill:none;stroke:black;" points="232,-307 364,-307 "/>
<text text-anchor="start" x="240" y="-290.4" style="font-family:Times New Roman;font-size:11.00;">color :string</text>
<text text-anchor="start" x="240" y="-273.4" style="font-family:Times New Roman;font-size:11.00;">description :text</text>
<text text-anchor="start" x="240" y="-256.4" style="font-family:Times New Roman;font-size:11.00;">more_info :text</text>
<text text-anchor="start" x="240" y="-239.4" style="font-family:Times New Roman;font-size:11.00;">created_at :datetime</text>
<text text-anchor="start" x="240" y="-222.4" style="font-family:Times New Roman;font-size:11.00;">updated_at :datetime</text>
<text text-anchor="start" x="240" y="-205.4" style="font-family:Times New Roman;font-size:11.00;">summary :string</text>
</g>
<!-- Thought -->
<g id="node3" class="node"><title>Thought</title>
<polyline style="fill:none;stroke:black;" points="394,-0 502,-0 "/>
<path style="fill:none;stroke:black;" d="M502,-0C508,-0 514,-6 514,-12"/>
<polyline style="fill:none;stroke:black;" points="514,-12 514,-89 "/>
<path style="fill:none;stroke:black;" d="M514,-89C514,-95 508,-101 502,-101"/>
<polyline style="fill:none;stroke:black;" points="502,-101 394,-101 "/>
<path style="fill:none;stroke:black;" d="M394,-101C388,-101 382,-95 382,-89"/>
<polyline style="fill:none;stroke:black;" points="382,-89 382,-12 "/>
<path style="fill:none;stroke:black;" d="M382,-12C382,-6 388,-0 394,-0"/>
<text text-anchor="middle" x="448" y="-83.9" style="font-family:Times New Roman;font-size:11.00;">Thought</text>
<polyline style="fill:none;stroke:black;" points="382,-76 514,-76 "/>
<text text-anchor="start" x="390" y="-59.4" style="font-family:Times New Roman;font-size:11.00;">summary :string</text>
<text text-anchor="start" x="390" y="-42.4" style="font-family:Times New Roman;font-size:11.00;">description :text</text>
<text text-anchor="start" x="390" y="-25.4" style="font-family:Times New Roman;font-size:11.00;">created_at :datetime</text>
<text text-anchor="start" x="390" y="-8.4" style="font-family:Times New Roman;font-size:11.00;">updated_at :datetime</text>
</g>
<!-- Topic -->
<g id="node4" class="node"><title>Topic</title>
<polyline style="fill:none;stroke:black;" points="394,-223 502,-223 "/>
<path style="fill:none;stroke:black;" d="M502,-223C508,-223 514,-229 514,-235"/>
<polyline style="fill:none;stroke:black;" points="514,-235 514,-295 "/>
<path style="fill:none;stroke:black;" d="M514,-295C514,-301 508,-307 502,-307"/>
<polyline style="fill:none;stroke:black;" points="502,-307 394,-307 "/>
<path style="fill:none;stroke:black;" d="M394,-307C388,-307 382,-301 382,-295"/>
<polyline style="fill:none;stroke:black;" points="382,-295 382,-235 "/>
<path style="fill:none;stroke:black;" d="M382,-235C382,-229 388,-223 394,-223"/>
<text text-anchor="middle" x="448" y="-289.9" style="font-family:Times New Roman;font-size:11.00;">Topic</text>
<polyline style="fill:none;stroke:black;" points="382,-282 514,-282 "/>
<text text-anchor="start" x="390" y="-264.9" style="font-family:Times New Roman;font-size:11.00;">name :string</text>
<text text-anchor="start" x="390" y="-247.9" style="font-family:Times New Roman;font-size:11.00;">created_at :datetime</text>
<text text-anchor="start" x="390" y="-230.9" style="font-family:Times New Roman;font-size:11.00;">updated_at :datetime</text>
</g>
<!-- Topic&#45;&gt;Thought -->
<g id="edge2" class="edge"><title>Topic&#45;&gt;Thought</title>
<path style="fill:none;stroke:black;" d="M448,-213C448,-182 448,-142 448,-109"/>
<polygon style="fill:black;stroke:black;" points="448,-213 443.5,-223 448,-218 448,-223 448,-223 448,-223 448,-218 452.5,-223 448,-213 448,-213"/>
<ellipse style="fill:black;stroke:black;" cx="448" cy="-105" rx="4" ry="4"/>
</g>
<!-- User -->
<g id="node5" class="node"><title>User</title>
<polyline style="fill:none;stroke:black;" points="544,-138 748,-138 "/>
<path style="fill:none;stroke:black;" d="M748,-138C754,-138 760,-144 760,-150"/>
<polyline style="fill:none;stroke:black;" points="760,-150 760,-380 "/>
<path style="fill:none;stroke:black;" d="M760,-380C760,-386 754,-392 748,-392"/>
<polyline style="fill:none;stroke:black;" points="748,-392 544,-392 "/>
<path style="fill:none;stroke:black;" d="M544,-392C538,-392 532,-386 532,-380"/>
<polyline style="fill:none;stroke:black;" points="532,-380 532,-150 "/>
<path style="fill:none;stroke:black;" d="M532,-150C532,-144 538,-138 544,-138"/>
<text text-anchor="middle" x="646" y="-374.9" style="font-family:Times New Roman;font-size:11.00;">User</text>
<polyline style="fill:none;stroke:black;" points="532,-367 760,-367 "/>
<text text-anchor="start" x="540" y="-349.9" style="font-family:Times New Roman;font-size:11.00;">login :string</text>
<text text-anchor="start" x="540" y="-332.9" style="font-family:Times New Roman;font-size:11.00;">name :string</text>
<text text-anchor="start" x="540" y="-315.9" style="font-family:Times New Roman;font-size:11.00;">email :string</text>
<text text-anchor="start" x="540" y="-298.9" style="font-family:Times New Roman;font-size:11.00;">crypted_password :string</text>
<text text-anchor="start" x="540" y="-281.9" style="font-family:Times New Roman;font-size:11.00;">salt :string</text>
<text text-anchor="start" x="540" y="-264.9" style="font-family:Times New Roman;font-size:11.00;">created_at :datetime</text>
<text text-anchor="start" x="540" y="-247.9" style="font-family:Times New Roman;font-size:11.00;">updated_at :datetime</text>
<text text-anchor="start" x="540" y="-230.9" style="font-family:Times New Roman;font-size:11.00;">remember_token :string</text>
<text text-anchor="start" x="540" y="-213.9" style="font-family:Times New Roman;font-size:11.00;">remember_token_expires_at :datetime</text>
<text text-anchor="start" x="540" y="-196.9" style="font-family:Times New Roman;font-size:11.00;">activation_code :string</text>
<text text-anchor="start" x="540" y="-179.9" style="font-family:Times New Roman;font-size:11.00;">activated_at :datetime</text>
<text text-anchor="start" x="540" y="-162.9" style="font-family:Times New Roman;font-size:11.00;">state :string</text>
<text text-anchor="start" x="540" y="-145.9" style="font-family:Times New Roman;font-size:11.00;">deleted_at :datetime</text>
</g>
<!-- UserMailer -->
<g id="node6" class="node"><title>UserMailer</title>
<polygon style="fill:none;stroke:black;" points="824,-26 824,-76 901,-76 901,-26 824,-26"/>
<text text-anchor="middle" x="862" y="-58.9" style="font-family:Times New Roman;font-size:11.00;">UserMailer</text>
<polyline style="fill:none;stroke:black;" points="824,-51 901,-51 "/>
<text text-anchor="middle" x="862" y="-33.9" style="font-family:Times New Roman;font-size:11.00;"> </text>
</g>
<!-- UserObserver -->
<g id="node7" class="node"><title>UserObserver</title>
<polygon style="fill:none;stroke:black;" points="1022,-26 1022,-76 1116,-76 1116,-26 1022,-26"/>
<text text-anchor="middle" x="1069" y="-58.9" style="font-family:Times New Roman;font-size:11.00;">UserObserver</text>
<polyline style="fill:none;stroke:black;" points="1022,-51 1116,-51 "/>
<text text-anchor="middle" x="1069" y="-33.9" style="font-family:Times New Roman;font-size:11.00;"> </text>
</g>
<!-- ActionMailer::Base -->
<g id="node9" class="node"><title>ActionMailer::Base</title>
<ellipse style="fill:none;stroke:black;" cx="862" cy="-265" rx="84.0808" ry="18"/>
<text text-anchor="middle" x="862" y="-260.9" style="font-family:Times New Roman;font-size:11.00;">ActionMailer::Base</text>
</g>
<!-- ActionMailer::Base&#45;&gt;UserMailer -->
<g id="edge4" class="edge"><title>ActionMailer::Base&#45;&gt;UserMailer</title>
<path style="fill:none;stroke:black;" d="M862,-237C862,-195 862,-116 862,-76"/>
<polygon style="fill:none;stroke:black;" points="858.5,-237 862,-247 865.5,-237 858.5,-237"/>
</g>
<!-- ActiveRecord::Observer -->
<g id="node11" class="node"><title>ActiveRecord::Observer</title>
<ellipse style="fill:none;stroke:black;" cx="1069" cy="-265" rx="105.122" ry="18"/>
<text text-anchor="middle" x="1069" y="-260.9" style="font-family:Times New Roman;font-size:11.00;">ActiveRecord::Observer</text>
</g>
<!-- ActiveRecord::Observer&#45;&gt;UserObserver -->
<g id="edge6" class="edge"><title>ActiveRecord::Observer&#45;&gt;UserObserver</title>
<path style="fill:none;stroke:black;" d="M1069,-237C1069,-195 1069,-116 1069,-76"/>
<polygon style="fill:none;stroke:black;" points="1065.5,-237 1069,-247 1072.5,-237 1065.5,-237"/>
</g>
</g>
</svg>
